<?xml version="1.0" standalone="no"?>
<!DOCTYPE svg PUBLIC "-//W3C//DTD SVG 20010904//EN"
 "http://www.w3.org/TR/2001/REC-SVG-20010904/DTD/svg10.dtd">
<svg version="1.0" xmlns="http://www.w3.org/2000/svg"
 width="1265.000000pt" height="1265.000000pt" viewBox="0 0 1265.000000 1265.000000"
 preserveAspectRatio="xMidYMid meet">
<metadata>
Created by potrace 1.14, written by Peter Selinger 2001-2017
</metadata>
<g transform="translate(0.000000,1265.000000) scale(0.100000,-0.100000)"
fill="#000000" stroke="none">
<path d="M6346 12624 c-71 -22 -175 -130 -192 -199 -10 -38 -11 -1654 -2
-1718 16 -108 96 -219 188 -260 87 -39 222 -28 307 24 37 23 93 95 93 119 0 9
3 20 7 24 4 3 8 14 9 24 2 9 6 35 10 57 4 22 9 261 10 530 2 270 4 558 5 640
2 136 -6 365 -15 411 -2 11 -7 39 -10 64 -17 110 -33 145 -93 200 -103 95
-198 120 -317 84z"/>
<path d="M4021 12098 c-91 -28 -155 -91 -186 -186 -14 -41 -25 -89 -25 -108 0
-61 65 -213 253 -591 63 -126 126 -259 142 -298 33 -83 122 -274 171 -365 19
-36 51 -99 70 -140 114 -245 134 -271 244 -323 77 -37 156 -40 236 -9 57 21
69 29 126 85 50 50 70 98 71 172 1 104 -43 215 -236 604 -67 136 -146 307
-176 381 -68 167 -211 455 -286 575 -76 122 -122 167 -191 189 -100 31 -146
35 -213 14z"/>
<path d="M8677 11882 c-58 -13 -75 -22 -115 -61 -56 -55 -169 -205 -354 -471
-75 -107 -168 -235 -207 -285 -40 -49 -124 -166 -189 -260 -64 -93 -145 -208
-180 -254 -85 -112 -104 -156 -107 -257 -3 -70 0 -89 21 -135 30 -63 90 -124
160 -159 40 -21 63 -25 130 -25 72 0 85 3 125 29 91 60 204 197 389 471 76
114 178 256 190 265 32 25 279 361 363 493 31 51 62 99 67 107 24 37 72 139
84 181 13 41 12 55 -6 133 -25 109 -70 171 -153 211 -67 33 -125 38 -218 17z"/>
<path d="M2270 10431 c-114 -36 -214 -164 -223 -286 -11 -156 72 -238 583
-575 85 -56 196 -135 245 -174 376 -298 706 -490 813 -472 90 14 169 46 209
85 83 79 107 167 79 294 -15 65 -23 82 -58 117 -59 59 -188 153 -458 335 -129
87 -278 191 -332 232 -53 40 -179 128 -280 195 -100 66 -210 141 -242 166 -83
64 -150 89 -239 90 -39 0 -83 -3 -97 -7z"/>
<path d="M10183 10295 c-63 -19 -408 -194 -483 -245 -8 -5 -25 -14 -37 -20
-12 -5 -41 -21 -65 -36 -23 -15 -142 -78 -263 -139 -121 -62 -263 -138 -315
-169 -52 -31 -147 -83 -210 -115 -139 -71 -185 -106 -228 -174 -38 -61 -54
-113 -54 -177 1 -105 83 -235 179 -281 120 -58 266 -8 701 242 97 56 233 129
302 162 275 130 445 223 612 334 174 116 219 184 221 333 0 62 -4 84 -26 126
-41 82 -107 131 -202 153 -82 19 -88 19 -132 6z"/>
<path d="M6227 9824 c-1 -1 -47 -4 -102 -7 -381 -23 -785 -178 -1099 -423 -76
-60 -266 -250 -331 -333 -187 -238 -333 -556 -385 -841 -6 -30 -12 -65 -14
-77 -19 -96 -26 -351 -14 -473 14 -137 23 -190 54 -313 179 -720 786 -1297
1522 -1447 55 -11 124 -22 154 -25 29 -3 69 -8 88 -11 19 -2 91 -5 160 -5 316
-1 602 64 887 202 215 103 373 217 543 388 219 221 379 478 474 764 20 60 38
116 39 125 2 9 11 51 20 92 26 115 43 283 42 410 -2 113 -13 279 -21 291 -2 4
-6 27 -9 50 -3 24 -19 95 -35 156 -27 101 -39 138 -83 248 -42 107 -218 412
-256 445 -3 3 -26 30 -50 60 -249 307 -629 550 -1028 656 -103 28 -102 28
-205 44 -96 15 -342 32 -351 24z"/>
<path d="M3098 8185 c-2 -2 -59 -6 -128 -10 -69 -3 -143 -8 -165 -10 -22 -2
-121 -6 -220 -9 -233 -7 -431 -16 -475 -21 -19 -3 -89 -7 -155 -10 -221 -10
-255 -14 -309 -40 -58 -28 -137 -102 -160 -150 -58 -121 -20 -304 78 -378 57
-44 141 -60 316 -60 150 -1 374 10 415 20 11 2 135 6 275 8 252 4 483 12 570
21 54 5 139 15 160 19 8 1 35 6 60 10 76 12 168 45 190 68 92 99 124 166 123
253 -1 82 -30 145 -96 207 -87 82 -88 82 -294 83 -101 1 -184 0 -185 -1z"/>
<path d="M9142 8008 c-88 -13 -191 -78 -236 -149 -58 -92 -55 -253 8 -345 45
-67 111 -101 231 -120 28 -5 248 -9 490 -11 242 -1 546 -4 675 -5 210 -2 388
4 445 16 11 2 40 7 65 11 74 12 112 33 163 88 97 104 124 222 75 329 -27 57
-110 145 -157 165 -43 18 -183 27 -411 26 -216 -1 -361 -1 -941 1 -195 0 -379
-2 -407 -6z"/>
<path d="M3640 6697 c-89 -37 -185 -92 -503 -288 -116 -72 -314 -189 -386
-228 -45 -24 -141 -82 -214 -129 -72 -47 -172 -108 -222 -135 -152 -85 -210
-141 -246 -239 -49 -135 4 -290 129 -372 139 -92 253 -54 722 242 91 57 175
110 187 118 12 7 74 41 139 75 377 197 681 405 749 513 19 30 38 161 31 213
-7 56 -37 114 -81 158 -54 53 -91 69 -225 91 -14 2 -50 -7 -80 -19z"/>
<path d="M8697 6628 c-116 -31 -167 -69 -212 -159 -31 -61 -36 -111 -18 -199
21 -99 31 -111 199 -238 81 -62 460 -323 533 -367 18 -11 93 -67 101 -75 18
-19 109 -84 270 -191 102 -67 214 -144 249 -171 110 -82 162 -103 261 -102
102 0 155 21 217 83 62 63 97 140 99 222 4 145 -78 227 -516 519 -173 115
-339 236 -467 340 -15 13 -273 185 -331 223 -78 49 -226 117 -272 125 -33 6
-64 3 -113 -10z"/>
<path d="M4606 5695 c-37 -14 -79 -36 -92 -50 -55 -60 -129 -189 -314 -550
-62 -121 -128 -244 -146 -273 -19 -29 -34 -54 -34 -56 0 -2 -22 -41 -48 -87
-26 -46 -80 -149 -120 -229 -75 -151 -112 -221 -129 -242 -6 -7 -23 -44 -38
-83 -65 -165 2 -340 157 -410 110 -50 219 -44 292 17 81 67 155 185 324 518
63 124 154 290 202 370 220 366 360 672 360 789 0 20 -12 68 -26 108 -33 91
-91 153 -170 182 -70 27 -132 25 -218 -4z"/>
<path d="M7571 5608 c-40 -11 -107 -56 -135 -89 -26 -31 -55 -99 -61 -145 -4
-21 -8 -47 -11 -57 -6 -21 21 -106 51 -162 12 -22 40 -74 62 -115 22 -41 98
-172 168 -290 70 -118 155 -267 188 -330 72 -138 117 -218 212 -370 39 -63 91
-152 115 -198 68 -132 140 -193 258 -222 66 -15 114 -9 184 22 156 72 218 202
168 354 -30 92 -124 271 -259 492 -60 100 -143 246 -182 324 -180 355 -336
603 -455 721 -38 38 -55 47 -116 61 -78 18 -136 19 -187 4z"/>
<path d="M6114 5250 c-59 -23 -158 -118 -174 -165 -21 -65 -27 -181 -29 -555
-1 -212 -4 -403 -7 -425 -10 -89 -7 -781 4 -818 29 -103 117 -196 208 -223
110 -32 247 -2 315 69 46 47 56 74 78 191 16 91 19 156 19 434 0 180 3 374 8
432 10 130 12 623 2 705 -21 172 -30 198 -91 262 -97 103 -221 137 -333 93z"/>
<path d="M4185 2194 c-33 -14 -67 -26 -75 -28 -8 -1 -35 -8 -60 -15 -50 -15
-53 -15 -165 -36 -111 -20 -134 -23 -182 -24 l-43 -1 0 -55 0 -55 38 -1 c123
-3 157 -18 167 -77 21 -124 21 -1613 0 -1694 -9 -37 -44 -47 -197 -57 -5 -1
-8 -27 -8 -58 l0 -58 410 0 c403 0 410 0 411 20 3 53 1 86 -4 91 -3 3 -36 8
-74 11 -89 6 -130 24 -140 60 -4 15 -8 199 -8 408 0 369 1 381 22 427 39 86
137 140 254 141 61 0 85 -4 120 -22 81 -42 104 -85 124 -226 12 -90 13 -594 2
-700 -16 -144 -18 -193 -6 -201 6 -4 144 -7 305 -8 l294 -1 0 58 c0 38 -4 57
-12 58 -154 10 -179 21 -189 85 -4 21 -6 216 -5 433 3 423 -3 488 -48 586 -33
73 -79 120 -149 155 -74 35 -96 40 -211 47 -102 6 -182 -8 -241 -42 -22 -13
-83 -60 -135 -105 -52 -45 -103 -86 -113 -91 -16 -9 -17 9 -11 368 3 208 7
428 9 488 4 109 0 146 -13 144 -4 0 -34 -12 -67 -25z"/>
<path d="M8835 2189 c-64 -26 -199 -61 -285 -74 -19 -3 -46 -7 -60 -10 -14 -2
-52 -7 -85 -10 -32 -4 -63 -9 -67 -11 -4 -3 -8 -27 -8 -53 l0 -48 78 -6 c93
-6 106 -11 121 -43 16 -36 25 -368 24 -959 0 -560 -6 -753 -22 -784 -7 -11
-25 -22 -44 -26 -34 -5 -111 -13 -139 -14 -15 -1 -18 -11 -18 -58 l0 -58 410
0 410 0 0 58 c0 50 -2 57 -20 58 -11 1 -24 3 -30 4 -5 1 -32 3 -59 4 -58 1
-97 29 -106 76 -4 17 -8 136 -10 265 l-4 234 103 -104 c157 -161 295 -318 429
-490 l82 -105 257 0 258 0 0 57 0 58 -47 12 c-38 9 -61 25 -118 83 -65 65
-160 169 -266 290 -24 28 -56 64 -71 80 -15 17 -36 41 -47 54 -11 12 -49 55
-84 95 -118 130 -119 133 -107 156 6 11 14 20 18 20 4 1 30 21 57 46 115 106
299 260 336 282 27 16 61 25 107 29 37 2 76 6 87 8 11 2 25 4 30 4 6 1 11 25
10 57 l0 56 -199 0 -198 1 -67 -74 c-79 -89 -376 -386 -447 -449 -28 -25 -65
-57 -82 -72 -18 -16 -34 -28 -38 -28 -4 0 3 1305 8 1360 5 60 -9 64 -97 29z"/>
<path d="M5895 2163 c-128 -27 -197 -108 -197 -230 0 -201 239 -299 386 -158
107 103 77 300 -56 363 -46 22 -100 32 -133 25z"/>
<path d="M10865 2104 c-181 -32 -298 -86 -396 -184 -125 -124 -187 -274 -187
-453 0 -252 112 -420 329 -493 61 -21 242 -61 309 -69 63 -7 122 -18 230 -41
48 -10 153 -65 177 -92 111 -125 102 -339 -19 -473 -81 -90 -189 -131 -348
-133 -142 -1 -222 15 -336 70 -65 31 -183 141 -185 171 -1 10 -2 32 -4 48 -1
17 -3 67 -4 112 -1 81 -1 82 -28 85 -16 2 -44 1 -64 0 l-37 -4 -1 -93 c-3
-166 -20 -325 -42 -382 -7 -19 0 -25 84 -61 101 -44 249 -87 342 -99 75 -9
321 -10 395 0 208 26 371 102 504 233 133 132 192 276 195 474 3 222 -78 374
-242 455 -68 33 -224 73 -350 89 -26 4 -71 11 -100 17 -29 5 -68 12 -87 15
-138 23 -242 66 -289 120 -76 88 -88 244 -28 360 25 48 94 111 150 137 132 63
341 61 483 -4 67 -31 131 -76 145 -100 11 -21 22 -123 23 -211 l1 -48 63 0
c42 0 62 4 63 13 1 6 2 30 4 52 8 125 17 210 32 289 17 88 17 89 -4 106 -26
21 -152 63 -258 86 -108 23 -409 28 -520 8z"/>
<path d="M893 2092 c-21 -3 -23 -9 -23 -63 l0 -59 38 -1 c108 -3 170 -21 182
-54 23 -59 31 -304 31 -845 -1 -533 -9 -806 -26 -860 -10 -31 -56 -45 -185
-55 -14 -1 -28 -3 -32 -4 -5 0 -8 -27 -8 -58 l0 -58 485 0 c267 0 485 2 486 5
0 3 2 29 3 58 1 40 -2 52 -14 53 -208 14 -255 26 -264 67 -17 74 -28 1131 -17
1559 4 125 6 143 22 148 70 22 235 23 306 2 125 -38 199 -125 229 -272 21 -99
3 -261 -37 -339 -67 -131 -213 -195 -366 -162 -22 5 -34 2 -46 -12 -16 -17
-15 -21 9 -69 25 -48 30 -52 78 -61 89 -19 260 -8 352 22 206 67 361 220 423
416 24 77 32 208 18 297 -17 115 -110 233 -220 282 -54 25 -78 32 -157 47 -56
11 -181 16 -340 14 -461 -5 -781 -5 -841 0 -35 3 -74 4 -86 2z"/>
<path d="M3100 1909 c-69 -33 -228 -94 -271 -104 -23 -6 -26 -11 -23 -43 1
-20 5 -123 8 -228 l6 -192 -99 -66 c-95 -63 -99 -67 -98 -101 l1 -36 80 2 c45
1 89 1 98 0 16 -1 17 -21 12 -278 -3 -153 -7 -340 -8 -417 -4 -213 13 -284 86
-353 58 -56 139 -85 248 -88 118 -4 210 8 222 29 8 15 99 125 140 170 15 17
15 22 3 46 -14 27 -15 27 -62 15 -71 -19 -167 -13 -201 12 -39 29 -51 75 -59
236 -9 186 -8 615 1 625 4 4 88 6 185 5 l178 -2 21 94 c28 120 28 117 -10 110
-82 -14 -288 -21 -333 -11 -11 2 -26 5 -33 5 -11 1 -12 25 -8 119 8 145 16
269 21 302 3 14 7 55 11 92 6 60 4 67 -14 77 -28 15 -28 15 -102 -20z"/>
<path d="M6035 1438 c-98 -39 -273 -78 -420 -93 -38 -4 -77 -9 -85 -10 -10 -1
-15 -17 -15 -58 -1 -55 0 -57 24 -58 152 -4 186 -13 198 -57 10 -36 10 -887 0
-935 -11 -50 -37 -65 -128 -70 -43 -3 -81 -7 -86 -10 -5 -3 -9 -30 -9 -59 l1
-52 412 -1 413 0 0 58 c0 38 -4 57 -12 58 -7 0 -21 2 -30 4 -10 2 -42 6 -71 9
-74 7 -84 13 -99 54 -15 42 -18 752 -4 1049 7 166 7 172 -13 182 -11 6 -21 11
-23 10 -2 -1 -25 -10 -53 -21z"/>
<path d="M7031 1445 c-29 -13 -173 -55 -244 -71 -21 -5 -254 -43 -269 -44 -5
0 -8 -25 -8 -55 l0 -55 38 -1 c86 -1 136 -8 148 -21 19 -19 24 -132 24 -498 0
-320 -5 -468 -15 -501 -9 -26 -58 -39 -182 -48 -9 -1 -13 -20 -13 -58 l0 -58
405 0 c353 0 405 2 406 15 4 71 4 92 -3 96 -5 3 -30 7 -56 10 -100 9 -151 23
-153 42 0 4 -3 18 -6 32 -3 14 -6 199 -7 411 l-1 385 27 41 c76 115 252 163
373 102 114 -57 130 -124 130 -554 0 -268 -8 -403 -30 -542 -2 -13 2 -26 8
-30 6 -4 145 -7 308 -7 l297 -1 1 57 0 56 -37 6 c-20 3 -55 8 -77 11 -22 3
-49 12 -61 20 -38 24 -39 55 -31 575 6 361 2 413 -45 506 -26 52 -88 114 -145
142 -75 39 -151 52 -273 48 -148 -4 -151 -5 -330 -156 -25 -21 -58 -50 -75
-64 -16 -14 -33 -26 -36 -26 -3 0 -5 55 -5 122 1 136 -1 140 -63 113z"/>
</g>
</svg>
