<?xml version="1.0" encoding="utf-8"?>
<!-- Generator: Adobe Illustrator 26.0.3, SVG Export Plug-In . SVG Version: 6.00 Build 0)  -->
<svg version="1.0" id="svg2" xmlns:svg="http://www.w3.org/2000/svg"
	 xmlns="http://www.w3.org/2000/svg" xmlns:xlink="http://www.w3.org/1999/xlink" x="0px" y="0px" viewBox="0 0 893 593"
	 style="enable-background:new 0 0 893 593;" xml:space="preserve">
<style type="text/css">
	.st0{fill-rule:evenodd;clip-rule:evenodd;fill:#252969;}
</style>
<g id="g6" transform="matrix(0.9866372,0,0,0.9210123,6,6)">
	<path id="path8" class="st0" d="M515.9,268.5c14.2-2.6,29.9-1.7,44.6-3.5c-0.1,6.5-2.9,12.9-4.3,19.4l1.4,1l35.8-0.3l-4,16.2
		l-37.1,0.6c-5.1,16.2-9,32.9-13.3,49.5c0.1,4.2,3.2,6.7,6.5,8.5c11.3,0,24.6,1.9,34.5-2.3l-4.7,18.5l-61.7,0.5
		c-8.4-1.4-17-9.7-18.7-18.1l0.4-11.9C502.5,320.8,508.9,294.5,515.9,268.5L515.9,268.5z M372.7,287.1
		c11.2,16.8,21.5,33.9,30.8,51.6c-17.4,13.3-35,25.9-52.6,38.5l0,1l28.9-0.5l32.7-23.6c4.9,7.4,9.6,15,12.3,23.4l55.6-0.6
		c-1.2-0.3-2.2-1.8-3.1-2.6l-27.1-47.4l54.9-40.1l-0.1-1l-33.1,1.2c-8.2,10.9-20.8,16.3-31.2,24.3c-4.6-8-10.8-15.2-11.9-24.5
		L372.7,287.1L372.7,287.1z M731.8,284.7l0.7,4.6l-19.9,78.6l-4.8,7.8h52.5l-1.1-6.3l12.9-53.1c0.5-3.1,2.9-6.2,5.8-7.6
		c10.9,0.2,27.2-3.7,37.2,2.6l6.5-26.4c-16.4,2.7-38.7-8-48.1,10.6c-1.6-3.1-0.7-7.1-0.9-10.8L731.8,284.7L731.8,284.7z
		 M213.4,253.1l-105.8,0.5l0.2,8.8L80.7,365l-7.5,14.7l113.1-0.1c10.2,0.2,19-3.2,23.7-11.8c3.4-12.7,9.5-24.7,8.1-38.9
		c-1.6-5.5-5.5-10.6-10.4-14c4.8-1.4,9.6-3.3,13.3-7.2c8-10.9,10.5-24.5,10.8-37.9C229.9,261.6,221.7,254.5,213.4,253.1L213.4,253.1
		z M156.2,274l27.7,0.2c3.9,2.3,2.5,8,1.6,11.1c-2.4,6.2-2.3,14.4-7.9,18.6l-31.8,0.1L156.2,274L156.2,274z M140.1,324.9l29.5-0.1
		c4.1,1.9,3,7.8,1.9,11.1c-3.7,7.2,0.6,18.2-7.4,22.2l-32.1,0C133.4,347,137.5,335.8,140.1,324.9L140.1,324.9z M338.6,287.7
		l-92.8,0.3l-6.6,16.8c22.4-3.5,46.5-1.1,68.9-1.8c1.9,1,2.9,3,3.2,5.1c-0.9,2.9-0.6,6.7-3.9,8.3l-61.1,1.5l-10.6,5.3
		c-8.7,9.6-10.6,21.9-11.3,34.7c0.5,7.5,5.4,14.3,11.8,18.2c14.2,4.5,34.2,2.3,51,1.8c3.9-1,6.4-5.1,8.2-8.4
		c1.4,2.7,2.5,5.7,3.3,8.6l43.7,0.2l-1.4-6.3l12.9-50.8c2-6.6,4-15.8-0.4-21.7C350.6,293.6,344.4,289.8,338.6,287.7L338.6,287.7z
		 M304.2,334.3l-6.5,24.6l-2.8,2.4l-22,0.4c-9.5-5.6-0.3-16.9,0.5-24.9l3.6-2.4L304.2,334.3L304.2,334.3z M701.6,285.6l-83.8-0.5
		c-6.3,1.2-12,5.2-15.9,11c-5.8,19.3-11.2,38.8-14.5,59.1c1.5,9.4,8.5,18.6,18.2,20.8l92-0.3l7.2-18.9l-4.6,2l-63,0.5l-3.3-1.7
		c-5.1-6.2,1-12.7,1.6-19l75.9-1.3c2.1-12.9,10.5-25.7,4.3-39.6C713,292.2,707.2,287.2,701.6,285.6L701.6,285.6z M648,302.2
		l20.3-0.3c1.9,0.5,4,2.4,4.7,4.5c-0.1,4.6-1,9-2.7,13.3l-29.9,0.5C643,314.2,642.1,306,648,302.2L648,302.2z"/>
</g>
</svg>
