<svg width="40" height="40" viewBox="0 0 40 40" fill="none" xmlns="http://www.w3.org/2000/svg">
<path fill-rule="evenodd" clip-rule="evenodd" d="M4.98252 20L9.74512 15.2405L22.3969 2.58559L20.8766 1.06837C20.1188 0.310543 18.8797 0.310543 18.1218 1.06837L0.568371 18.6218C-0.189457 19.3797 -0.189457 20.6188 0.568371 21.3766C6.41849 27.2267 12.2717 33.0784 18.1234 38.9316C18.8812 39.6895 20.1203 39.6895 20.8782 38.9316L34.0159 25.7939L31.119 22.8969L19.5016 34.5144C14.664 29.6768 9.82481 24.8376 4.98408 20M34.0175 20L36.9144 22.8969L38.4348 21.3766C39.1926 20.6188 39.1926 19.3797 38.4348 18.6218C34.0534 14.2405 29.6752 9.8623 25.297 5.48096L10.7764 20L13.6733 22.8969C17.5468 19.0234 21.4204 15.1499 25.2939 11.2764L28.2252 14.2061C24.3485 18.0796 20.4781 21.9532 16.6046 25.8236L19.5016 28.7205L31.119 17.1015L33.3893 19.3719L34.0159 19.9984L34.0175 20Z" fill="url(#paint0_linear_129_1481)"/>
<defs>
<linearGradient id="paint0_linear_129_1481" x1="-0.000390633" y1="20" x2="38.9988" y2="20" gradientUnits="userSpaceOnUse">
<stop stop-color="#32C6E0"/>
<stop offset="1" stop-color="#104D90"/>
</linearGradient>
</defs>
</svg>
