<svg width="544" height="432" viewBox="0 0 544 432" fill="none" xmlns="http://www.w3.org/2000/svg">
<g opacity="0.05">
<path d="M349.376 307.469C348.919 307.469 348.453 307.334 348.041 307.039L325.662 291.023C325.169 290.673 324.838 290.136 324.739 289.535C324.64 288.935 324.784 288.316 325.142 287.823C344.904 260.273 355.345 227.74 355.345 193.737C355.345 104.617 282.84 32.1118 193.72 32.1118C104.599 32.1118 32.0939 104.617 32.0939 193.737C32.0939 227.74 42.535 260.273 62.2968 287.823C62.6553 288.316 62.7987 288.935 62.7001 289.535C62.6015 290.136 62.2699 290.673 61.777 291.023L39.3982 307.039C38.9949 307.325 38.5288 307.469 38.0717 307.469C37.3548 307.469 36.6557 307.137 36.2076 306.51C12.5203 273.484 0 234.489 0 193.729C0 86.9072 86.9072 0 193.729 0C300.55 0 387.457 86.9072 387.457 193.729C387.457 234.489 374.937 273.484 351.249 306.51C350.801 307.137 350.102 307.469 349.385 307.469H349.376Z" fill="url(#paint0_radial_2508_1330)" style="mix-blend-mode:screen"/>
</g>
<g opacity="0.1">
<path d="M323.045 289.48C322.657 289.48 322.27 289.362 321.936 289.117L303.324 275.709C302.909 275.41 302.639 274.965 302.549 274.466C302.467 273.967 302.585 273.45 302.882 273.033C319.313 249.973 328.002 222.732 328.002 194.265C328.002 119.652 267.694 58.9548 193.56 58.9548C119.426 58.9548 59.1184 119.652 59.1184 194.265C59.1184 222.732 67.8072 249.973 84.2384 273.033C84.5358 273.45 84.653 273.958 84.5719 274.466C84.4907 274.965 84.2113 275.419 83.7967 275.709L65.1843 289.117C64.8508 289.362 64.4633 289.48 64.0757 289.48C63.4808 289.48 62.895 289.199 62.5254 288.681C42.8224 261.041 32.4121 228.392 32.4121 194.265C32.4121 104.838 104.698 32.085 193.551 32.085C282.404 32.085 354.69 104.838 354.69 194.265C354.69 228.383 344.28 261.032 324.577 288.681C324.207 289.199 323.622 289.48 323.027 289.48H323.045Z" fill="url(#paint1_radial_2508_1330)" style="mix-blend-mode:screen"/>
</g>
<path d="M359.654 152.03H360.273C360.371 152.03 360.443 152.102 360.443 152.201V163.887C360.443 163.995 360.371 164.058 360.273 164.058H359.708C359.609 164.058 359.538 163.986 359.538 163.887V153.097C359.538 153.043 359.484 153.025 359.448 153.043L357.745 153.85C357.629 153.903 357.539 153.85 357.539 153.733V153.339C357.539 153.249 357.593 153.186 357.656 153.133L359.421 152.084C359.511 152.03 359.574 152.03 359.645 152.03H359.654Z" fill="#231F27"/>
<path d="M362.738 161.047V155.034C362.738 153.125 363.975 151.87 365.884 151.87C367.793 151.87 369.066 153.125 369.066 155.034V161.047C369.066 162.974 367.793 164.229 365.884 164.229C363.975 164.229 362.738 162.974 362.738 161.047ZM368.151 161.119V154.971C368.151 153.6 367.255 152.686 365.884 152.686C364.513 152.686 363.652 153.6 363.652 154.971V161.119C363.652 162.49 364.549 163.405 365.884 163.405C367.219 163.405 368.151 162.49 368.151 161.119Z" fill="#231F27"/>
<path d="M371.135 161.047V155.034C371.135 153.125 372.372 151.87 374.281 151.87C376.189 151.87 377.462 153.125 377.462 155.034V161.047C377.462 162.974 376.189 164.229 374.281 164.229C372.372 164.229 371.135 162.974 371.135 161.047ZM376.548 161.119V154.971C376.548 153.6 375.652 152.686 374.281 152.686C372.909 152.686 372.049 153.6 372.049 154.971V161.119C372.049 162.49 372.945 163.405 374.281 163.405C375.616 163.405 376.548 162.49 376.548 161.119Z" fill="#231F27"/>
<path d="M344.195 98.6296V104.177C344.195 105.997 343.012 107.153 341.291 107.153C339.571 107.153 338.522 106.006 338.522 104.249V104.061C338.522 103.953 338.594 103.89 338.692 103.89H339.257C339.365 103.89 339.427 103.944 339.427 104.043V104.213C339.427 105.486 340.198 106.328 341.282 106.328C342.43 106.328 343.272 105.486 343.272 104.141V101.354C343.272 101.282 343.218 101.264 343.182 101.318C342.734 102.089 341.999 102.421 341.139 102.421C339.768 102.421 338.925 101.686 338.549 100.449C338.379 100.019 338.289 99.4182 338.289 98.6475C338.289 98.0112 338.343 97.4645 338.477 97.0701C338.836 95.663 339.75 94.8564 341.211 94.8564C342.672 94.8564 343.613 95.6272 343.98 97.0074C344.132 97.5272 344.186 98.1277 344.186 98.6385L344.195 98.6296ZM343.147 100.055C343.254 99.6781 343.281 99.23 343.281 98.6475C343.281 98.1008 343.245 97.7064 343.174 97.339C342.949 96.3263 342.295 95.6541 341.247 95.6541C340.288 95.6541 339.544 96.2366 339.302 97.4107C339.23 97.7064 339.203 98.1187 339.203 98.6654C339.203 99.2838 339.257 99.7678 339.356 100.108C339.58 101.049 340.234 101.659 341.247 101.659C342.259 101.659 342.914 101.04 343.138 100.064L343.147 100.055Z" fill="#231F27"/>
<path d="M346.311 104.007V97.9938C346.311 96.0848 347.547 94.8301 349.456 94.8301C351.365 94.8301 352.638 96.0848 352.638 97.9938V104.007C352.638 105.934 351.365 107.189 349.456 107.189C347.547 107.189 346.311 105.934 346.311 104.007ZM351.724 104.079V97.931C351.724 96.5598 350.828 95.6456 349.456 95.6456C348.085 95.6456 347.225 96.5598 347.225 97.931V104.079C347.225 105.45 348.121 106.365 349.456 106.365C350.792 106.365 351.724 105.45 351.724 104.079Z" fill="#231F27"/>
<path d="M363.223 209.785H363.841C363.939 209.785 364.011 209.857 364.011 209.955V221.642C364.011 221.75 363.939 221.813 363.841 221.813H363.276C363.178 221.813 363.106 221.741 363.106 221.642V210.852C363.106 210.798 363.052 210.78 363.016 210.798L361.314 211.605C361.197 211.658 361.107 211.604 361.107 211.488V211.094C361.107 211.004 361.161 210.941 361.224 210.888L362.989 209.839C363.079 209.785 363.142 209.785 363.214 209.785H363.223Z" fill="#231F27"/>
<path d="M368.223 209.785H368.841C368.94 209.785 369.011 209.857 369.011 209.955V221.642C369.011 221.75 368.94 221.813 368.841 221.813H368.276C368.178 221.813 368.106 221.741 368.106 221.642V210.852C368.106 210.798 368.052 210.78 368.016 210.798L366.314 211.605C366.197 211.658 366.107 211.604 366.107 211.488V211.094C366.107 211.004 366.161 210.941 366.224 210.888L367.99 209.839C368.079 209.785 368.142 209.785 368.214 209.785H368.223Z" fill="#231F27"/>
<path d="M371.316 218.8V212.787C371.316 210.878 372.553 209.623 374.462 209.623C376.371 209.623 377.644 210.878 377.644 212.787V218.8C377.644 220.727 376.371 221.982 374.462 221.982C372.553 221.982 371.316 220.727 371.316 218.8ZM376.73 218.872V212.724C376.73 211.353 375.833 210.439 374.462 210.439C373.091 210.439 372.231 211.353 372.231 212.724V218.872C372.231 220.243 373.127 221.157 374.462 221.157C375.798 221.157 376.73 220.243 376.73 218.872Z" fill="#231F27"/>
<path d="M303.521 54.3108C304.023 54.5528 304.382 54.9472 304.624 55.4939C304.848 55.9957 304.964 56.6321 304.964 57.367C304.964 58.1019 304.83 58.7203 304.606 59.2222C304.14 60.2349 303.235 60.8175 302.016 60.8175C300.797 60.8175 299.901 60.217 299.435 59.1684C299.193 58.6486 299.076 58.0302 299.076 57.349C299.076 56.6679 299.193 56.0406 299.417 55.5476C299.659 54.983 300.053 54.5707 300.555 54.3108C300.609 54.275 300.609 54.2391 300.555 54.2033C300.143 53.9792 299.802 53.6745 299.56 53.2891C299.246 52.8231 299.076 52.2047 299.076 51.5325C299.076 50.8604 299.229 50.2957 299.506 49.8297C299.99 48.9872 300.878 48.4854 302.034 48.4854C303.19 48.4854 304.077 48.9693 304.579 49.8387C304.839 50.2868 304.991 50.8693 304.991 51.5415C304.991 52.2137 304.821 52.7962 304.525 53.2622C304.283 53.6387 303.943 53.9703 303.53 54.1943C303.477 54.2302 303.477 54.266 303.53 54.3019L303.521 54.3108ZM302.007 53.8986C302.813 53.8986 303.414 53.5401 303.746 52.9217C303.97 52.5632 304.068 52.1151 304.068 51.5953C304.068 51.0755 303.961 50.6363 303.754 50.2868C303.414 49.6863 302.822 49.292 301.998 49.292C301.173 49.292 300.591 49.6863 300.259 50.3047C300.071 50.6632 299.963 51.1113 299.963 51.6132C299.963 52.1599 300.08 52.6259 300.304 52.9844C300.645 53.567 301.245 53.8986 301.989 53.8986H302.007ZM304.05 57.3042C304.05 56.7396 303.961 56.2377 303.808 55.8434C303.512 55.0726 302.894 54.6424 302.007 54.6424C301.12 54.6424 300.546 55.0906 300.241 55.8613C300.071 56.2557 299.981 56.7755 299.981 57.3222C299.981 57.9406 300.08 58.4424 300.277 58.8726C300.6 59.6075 301.209 60.0198 302.034 60.0198C302.858 60.0198 303.459 59.6075 303.772 58.8547C303.961 58.4424 304.068 57.9406 304.068 57.3042H304.05Z" fill="#231F27"/>
<path d="M307.061 57.6803V51.6666C307.061 49.7576 308.297 48.5029 310.206 48.5029C312.115 48.5029 313.388 49.7576 313.388 51.6666V57.6803C313.388 59.6072 312.115 60.8619 310.206 60.8619C308.297 60.8619 307.061 59.6072 307.061 57.6803ZM312.474 57.752V51.6039C312.474 50.2327 311.578 49.3185 310.206 49.3185C308.835 49.3185 307.975 50.2327 307.975 51.6039V57.752C307.975 59.1232 308.871 60.0374 310.206 60.0374C311.542 60.0374 312.474 59.1232 312.474 57.752Z" fill="#231F27"/>
<path d="M346.822 263.966H347.441C347.539 263.966 347.611 264.038 347.611 264.136V275.823C347.611 275.93 347.539 275.993 347.441 275.993H346.876C346.777 275.993 346.706 275.922 346.706 275.823V265.032C346.706 264.979 346.652 264.961 346.616 264.979L344.913 265.785C344.797 265.839 344.707 265.785 344.707 265.669V265.274C344.707 265.185 344.761 265.122 344.824 265.068L346.589 264.02C346.679 263.966 346.741 263.966 346.813 263.966H346.822Z" fill="#231F27"/>
<path d="M349.825 275.821V275.319C349.825 275.229 349.842 275.184 349.896 275.095C351.079 273.41 352.235 271.743 353.347 270.094C354.243 268.767 354.718 267.656 354.718 266.778C354.718 265.487 353.911 264.627 352.692 264.627C351.474 264.627 350.721 265.487 350.73 266.778V267.36C350.73 267.459 350.658 267.531 350.559 267.531H349.977C349.878 267.531 349.807 267.459 349.807 267.36V266.706C349.842 264.967 351.008 263.82 352.71 263.82C354.413 263.82 355.65 265.021 355.65 266.778C355.65 267.826 355.148 269.027 354.207 270.434C353.176 271.985 352.092 273.544 351.008 275.095C350.972 275.149 351.008 275.184 351.061 275.184H355.874C355.982 275.184 356.044 275.256 356.044 275.355V275.821C356.044 275.928 355.973 275.991 355.874 275.991H349.995C349.887 275.991 349.825 275.919 349.825 275.821Z" fill="#231F27"/>
<path d="M357.785 272.989V266.975C357.785 265.066 359.022 263.812 360.931 263.812C362.84 263.812 364.113 265.066 364.113 266.975V272.989C364.113 274.916 362.84 276.171 360.931 276.171C359.022 276.171 357.785 274.916 357.785 272.989ZM363.198 273.061V266.912C363.198 265.541 362.302 264.627 360.931 264.627C359.56 264.627 358.699 265.541 358.699 266.912V273.061C358.699 274.432 359.596 275.346 360.931 275.346C362.266 275.346 363.198 274.432 363.198 273.061Z" fill="#231F27"/>
<path d="M247.276 31.2444L250.762 20.3015C250.762 20.3015 250.744 20.2119 250.69 20.2119H246.46C246.46 20.2119 246.388 20.2477 246.388 20.2836V21.0185C246.388 21.1171 246.317 21.1888 246.218 21.1888H245.77C245.662 21.1888 245.6 21.1171 245.6 21.0185V19.5756C245.6 19.468 245.671 19.4053 245.77 19.4053H251.56C251.667 19.4053 251.73 19.477 251.73 19.5756V20.1043C251.73 20.176 251.712 20.2388 251.694 20.3105L248.226 31.2892C248.19 31.3789 248.109 31.4237 248.019 31.4237H247.401C247.285 31.4237 247.231 31.352 247.267 31.2355L247.276 31.2444Z" fill="#231F27"/>
<path d="M253.271 28.4283V22.4147C253.271 20.5057 254.508 19.251 256.417 19.251C258.326 19.251 259.599 20.5057 259.599 22.4147V28.4283C259.599 30.3552 258.326 31.6099 256.417 31.6099C254.508 31.6099 253.271 30.3552 253.271 28.4283ZM258.685 28.5V22.3519C258.685 20.9807 257.788 20.0665 256.417 20.0665C255.046 20.0665 254.186 20.9807 254.186 22.3519V28.5C254.186 29.8713 255.082 30.7854 256.417 30.7854C257.753 30.7854 258.685 29.8713 258.685 28.5Z" fill="#231F27"/>
<path d="M192.319 16.3755C192.319 17.0118 192.265 17.5585 192.131 17.9529C191.772 19.3599 190.858 20.1665 189.397 20.1665C187.936 20.1665 186.995 19.3958 186.628 18.0156C186.476 17.4958 186.422 16.8953 186.422 16.3845V10.8368C186.422 9.01747 187.605 7.86133 189.326 7.86133C191.046 7.86133 192.095 9.0085 192.095 10.7651V10.9533C192.095 11.0519 192.023 11.1236 191.925 11.1236H191.36C191.253 11.1236 191.19 11.0519 191.19 10.9533V10.801C191.19 9.52832 190.419 8.68587 189.335 8.68587C188.187 8.68587 187.345 9.52831 187.345 10.8727V13.6599C187.345 13.7316 187.399 13.7496 187.435 13.6958C187.883 12.925 188.618 12.5934 189.478 12.5934C190.849 12.5934 191.692 13.3283 192.077 14.5741C192.247 15.0043 192.337 15.6047 192.337 16.3755H192.319ZM191.405 16.3576C191.405 15.7392 191.351 15.2552 191.253 14.9146C191.028 13.9736 190.374 13.3642 189.362 13.3642C188.349 13.3642 187.695 13.9826 187.47 14.9595C187.372 15.3359 187.336 15.784 187.336 16.3665C187.336 16.9132 187.372 17.3076 187.444 17.675C187.668 18.6878 188.322 19.3599 189.37 19.3599C190.329 19.3599 191.073 18.7774 191.315 17.6033C191.387 17.3076 191.423 16.8953 191.423 16.3486L191.405 16.3576Z" fill="#231F27"/>
<path d="M194.273 17.0211V11.0074C194.273 9.09847 195.51 7.84375 197.419 7.84375C199.328 7.84375 200.601 9.09847 200.601 11.0074V17.0211C200.601 18.948 199.328 20.2027 197.419 20.2027C195.51 20.2027 194.273 18.948 194.273 17.0211ZM199.687 17.0928V10.9447C199.687 9.57346 198.79 8.65931 197.419 8.65931C196.048 8.65931 195.188 9.57346 195.188 10.9447V17.0928C195.188 18.464 196.084 19.3782 197.419 19.3782C198.755 19.3782 199.687 18.464 199.687 17.0928Z" fill="#231F27"/>
<path d="M133.121 28.4878C133.121 29.0703 133.068 29.6349 132.897 30.1727C132.539 31.517 131.553 32.2878 130.164 32.2878C128.667 32.2878 127.654 31.4274 127.35 29.9845C127.314 29.7783 127.26 29.5901 127.242 29.384C127.242 29.2765 127.314 29.2137 127.412 29.2137H127.977C128.085 29.2137 128.147 29.2675 128.165 29.384C128.183 29.5184 128.201 29.6618 128.237 29.7783C128.443 30.8448 129.133 31.4812 130.164 31.4812C131.195 31.4812 131.885 30.8449 132.091 29.7604C132.189 29.384 132.207 28.8821 132.207 28.4878C132.207 28.0217 132.154 27.5288 132.073 27.0628C131.867 26.0321 131.141 25.5302 130.164 25.5302C129.187 25.5302 128.461 25.9963 128.192 26.8566C128.174 26.9642 128.103 27.009 128.004 27.009H127.421C127.314 27.009 127.251 26.9373 127.251 26.8387V20.2963C127.251 20.1887 127.323 20.126 127.421 20.126H132.539C132.646 20.126 132.709 20.1977 132.709 20.2963V20.7623C132.709 20.8609 132.637 20.9326 132.539 20.9326H128.228C128.228 20.9326 128.156 20.9684 128.156 21.0043L128.138 25.593C128.138 25.6467 128.174 25.6647 128.228 25.6109C128.676 25.0463 129.429 24.7147 130.325 24.7147C131.58 24.7147 132.503 25.3331 132.853 26.5519C133.059 27.1882 133.13 27.8425 133.13 28.4967L133.121 28.4878Z" fill="#231F27"/>
<path d="M135.064 29.1412V23.1275C135.064 21.2186 136.301 19.9639 138.21 19.9639C140.119 19.9639 141.392 21.2186 141.392 23.1275V29.1412C141.392 31.0681 140.119 32.3229 138.21 32.3229C136.301 32.3229 135.064 31.0681 135.064 29.1412ZM140.478 29.2129V23.0648C140.478 21.6936 139.581 20.7794 138.21 20.7794C136.839 20.7794 135.979 21.6936 135.979 23.0648V29.2129C135.979 30.5842 136.875 31.4983 138.21 31.4983C139.546 31.4983 140.478 30.5842 140.478 29.2129Z" fill="#231F27"/>
<path d="M77.3759 59.4916V59.9756C77.3759 60.0831 77.3042 60.1458 77.2056 60.1458H76.5872C76.5872 60.1458 76.5155 60.1817 76.5155 60.2175V63.3454C76.5155 63.4529 76.4438 63.5156 76.3452 63.5156H75.7806C75.673 63.5156 75.6103 63.4439 75.6103 63.3454V60.2175C75.6103 60.2175 75.5744 60.1458 75.5386 60.1458H71.0843C70.9768 60.1458 70.9141 60.0741 70.9141 59.9756V59.5454C70.9141 59.4737 70.9141 59.4289 70.9499 59.3392L74.0777 51.6227C74.1136 51.5241 74.1763 51.4883 74.266 51.4883H74.8844C75.0009 51.4883 75.0726 51.5779 75.0188 51.6944L71.9626 59.2406C71.9626 59.2406 71.9626 59.3303 72.0164 59.3303H75.5386C75.5386 59.3303 75.6103 59.2944 75.6103 59.2586V56.3727C75.6103 56.2652 75.682 56.2024 75.7806 56.2024H76.3452C76.4527 56.2024 76.5155 56.2741 76.5155 56.3727V59.2586C76.5155 59.2586 76.5513 59.3303 76.5872 59.3303H77.2056C77.3131 59.3303 77.3759 59.402 77.3759 59.5006V59.4916Z" fill="#231F27"/>
<path d="M79.2949 60.5133V54.4996C79.2949 52.5907 80.5317 51.3359 82.4407 51.3359C84.3496 51.3359 85.6223 52.5907 85.6223 54.4996V60.5133C85.6223 62.4402 84.3496 63.6949 82.4407 63.6949C80.5317 63.6949 79.2949 62.4402 79.2949 60.5133ZM84.7081 60.585V54.4369C84.7081 53.0656 83.8119 52.1515 82.4407 52.1515C81.0694 52.1515 80.2091 53.0656 80.2091 54.4369V60.585C80.2091 61.9562 81.1053 62.8704 82.4407 62.8704C83.7761 62.8704 84.7081 61.9562 84.7081 60.585Z" fill="#231F27"/>
<path d="M38.3701 103.409C38.3701 104.063 38.2984 104.646 38.146 105.148C37.7517 106.456 36.8017 107.155 35.3946 107.155C33.8979 107.155 32.8672 106.295 32.5625 104.924C32.455 104.493 32.4281 104.027 32.4102 103.615C32.4102 103.516 32.4818 103.445 32.5804 103.445H33.1451C33.2526 103.445 33.3153 103.499 33.3153 103.615C33.3333 103.974 33.3691 104.368 33.4319 104.664C33.638 105.712 34.346 106.349 35.3946 106.349C36.3536 106.349 37.0078 105.829 37.2856 104.888C37.4201 104.457 37.4738 103.947 37.4738 103.355C37.4738 102.647 37.3842 102.029 37.2139 101.554C36.9003 100.693 36.2819 100.245 35.3946 100.245C35.2243 100.245 35.072 100.263 34.9465 100.317C34.8389 100.353 34.7762 100.353 34.7045 100.263L34.4267 99.9674C34.355 99.8778 34.355 99.815 34.4087 99.7254L37.1781 95.8806C37.1781 95.8806 37.1781 95.791 37.1243 95.791H32.6432C32.5356 95.791 32.4729 95.7193 32.4729 95.6207V95.1547C32.4729 95.0471 32.5446 94.9844 32.6432 94.9844H38.155C38.2625 94.9844 38.3253 95.0561 38.3253 95.1547V95.6655C38.3253 95.7551 38.3073 95.8178 38.2536 95.8895L35.6724 99.5283C35.6724 99.5283 35.6724 99.6179 35.7262 99.6179C36.8734 99.6537 37.671 100.272 38.0474 101.303C38.2536 101.849 38.3611 102.575 38.3611 103.4L38.3701 103.409Z" fill="#231F27"/>
<path d="M40.4688 104.007V97.9938C40.4688 96.0848 41.7055 94.8301 43.6145 94.8301C45.5235 94.8301 46.7961 96.0848 46.7961 97.9938V104.007C46.7961 105.934 45.5235 107.189 43.6145 107.189C41.7055 107.189 40.4688 105.934 40.4688 104.007ZM45.882 104.079V97.931C45.882 96.5598 44.9857 95.6456 43.6145 95.6456C42.2433 95.6456 41.3829 96.5598 41.3829 97.931V104.079C41.3829 105.45 42.2791 106.365 43.6145 106.365C44.9499 106.365 45.882 105.45 45.882 104.079Z" fill="#231F27"/>
<path d="M13.1781 161.741V161.239C13.1781 161.149 13.196 161.104 13.2498 161.015C14.4328 159.33 15.5889 157.663 16.7003 156.014C17.5965 154.687 18.0715 153.576 18.0715 152.698C18.0715 151.407 17.2649 150.547 16.046 150.547C14.8271 150.547 14.0743 151.407 14.0833 152.698V153.28C14.0833 153.379 14.0116 153.451 13.913 153.451H13.3304C13.2319 153.451 13.1602 153.379 13.1602 153.28V152.626C13.196 150.887 14.3611 149.74 16.0639 149.74C17.7668 149.74 19.0036 150.941 19.0036 152.698C19.0036 153.746 18.5017 154.947 17.5606 156.354C16.53 157.905 15.4455 159.464 14.3611 161.015C14.3253 161.069 14.3611 161.104 14.4149 161.104H19.2276C19.3352 161.104 19.3979 161.176 19.3979 161.275V161.741C19.3979 161.848 19.3262 161.911 19.2276 161.911H13.3484C13.2408 161.911 13.1781 161.839 13.1781 161.741Z" fill="#231F27"/>
<path d="M21.1445 158.909V152.895C21.1445 150.986 22.3813 149.731 24.2903 149.731C26.1992 149.731 27.4719 150.986 27.4719 152.895V158.909C27.4719 160.836 26.1992 162.09 24.2903 162.09C22.3813 162.09 21.1445 160.836 21.1445 158.909ZM26.5577 158.98V152.832C26.5577 151.461 25.6615 150.547 24.2903 150.547C22.9191 150.547 22.0587 151.461 22.0587 152.832V158.98C22.0587 160.352 22.9549 161.266 24.2903 161.266C25.6257 161.266 26.5577 160.352 26.5577 158.98Z" fill="#231F27"/>
<path d="M12.4237 209.775H13.0421C13.1407 209.775 13.2124 209.847 13.2124 209.946V221.632C13.2124 221.74 13.1407 221.803 13.0421 221.803H12.4775C12.3789 221.803 12.3072 221.731 12.3072 221.632V210.842C12.3072 210.788 12.2534 210.77 12.2176 210.788L10.5147 211.595C10.3982 211.649 10.3086 211.595 10.3086 211.478V211.084C10.3086 210.994 10.3624 210.932 10.4251 210.878L12.1907 209.829C12.2803 209.775 12.343 209.775 12.4147 209.775H12.4237Z" fill="#231F27"/>
<path d="M15.5137 218.8V212.787C15.5137 210.878 16.7505 209.623 18.6594 209.623C20.5684 209.623 21.841 210.878 21.841 212.787V218.8C21.841 220.727 20.5684 221.982 18.6594 221.982C16.7505 221.982 15.5137 220.727 15.5137 218.8ZM20.9269 218.872V212.724C20.9269 211.353 20.0307 210.439 18.6594 210.439C17.2882 210.439 16.4278 211.353 16.4278 212.724V218.872C16.4278 220.243 17.3241 221.157 18.6594 221.157C19.9948 221.157 20.9269 220.243 20.9269 218.872Z" fill="#231F27"/>
<path d="M28.8457 272.989V266.975C28.8457 265.066 30.0825 263.812 31.9915 263.812C33.9004 263.812 35.1731 265.066 35.1731 266.975V272.989C35.1731 274.916 33.9004 276.171 31.9915 276.171C30.0825 276.171 28.8457 274.916 28.8457 272.989ZM34.2589 273.061V266.912C34.2589 265.541 33.3627 264.627 31.9915 264.627C30.6202 264.627 29.7599 265.541 29.7599 266.912V273.061C29.7599 274.432 30.6561 275.346 31.9915 275.346C33.3268 275.346 34.2589 274.432 34.2589 273.061Z" fill="#231F27"/>
<defs>
<radialGradient id="paint0_radial_2508_1330" cx="0" cy="0" r="1" gradientUnits="userSpaceOnUse" gradientTransform="translate(196.202 191.82) scale(190.87 190.87)">
<stop offset="0.73" stop-color="#C96A6A"/>
<stop offset="0.89" stop-color="#A80000"/>
<stop offset="1" stop-color="#BF0000"/>
</radialGradient>
<radialGradient id="paint1_radial_2508_1330" cx="0" cy="0" r="1" gradientUnits="userSpaceOnUse" gradientTransform="translate(195.633 192.669) scale(158.76 159.785)">
<stop offset="0.73" stop-color="#FFE3E3"/>
<stop offset="0.88" stop-color="#C80000"/>
<stop offset="1" stop-color="#AD0000"/>
</radialGradient>
</defs>
</svg>
