<?xml version="1.0" encoding="utf-8"?>
<!-- Generator: Adobe Illustrator 26.3.1, SVG Export Plug-In . SVG Version: 6.00 Build 0)  -->
<svg version="1.1" id="Layer_1" xmlns="http://www.w3.org/2000/svg" xmlns:xlink="http://www.w3.org/1999/xlink" x="0px" y="0px"
	 viewBox="0 0 832.6 135.2" style="enable-background:new 0 0 832.6 135.2;" xml:space="preserve">
<style type="text/css">
	.st0{fill:#FFFFFF;}
</style>
<path class="st0" d="M0,90.1l22-12.8c4,9.2,10.8,15.5,23.4,15.5c12.1,0,15.2-4.8,15.2-9.1c0-6.9-6.4-9.6-23.1-14.2
	c-16.6-4.6-32.9-12.6-32.9-34c0-21.5,18.2-34,37.5-34c18.3,0,32.7,8.8,40.8,25.2L61.4,39.4c-3.8-8-9.1-12.9-19.3-12.9
	c-8,0-12,4-12,8.5c0,5.1,2.7,8.6,20.1,13.9c16.9,5.1,35.9,11,35.9,34.6c0,21.5-17.2,34.3-41.5,34.3C21.2,117.7,6.2,106.5,0,90.1
	 M151.4,35.4l-15,48.8l-17.7-48.8H92.4l31.7,76.1l-7.7,23.7h25.2l35.3-99.8C176.9,35.4,151.4,35.4,151.4,35.4z M264.8,66.5
	c0-21.5-13.7-33-29.8-33c-10.5,0-18.5,3.8-22.8,9.7v-7.5h-23.9v79.7h23.9V71.9c0-11.3,6.1-16.4,14.8-16.4c7.7,0,13.9,4.6,13.9,14.5
	v45.4h23.9V66.5 M338.4,75.6c0,12-8,19.5-19,19.5s-19-7.5-19-19.5s8-19.5,19-19.5C330.5,56.1,338.4,63.6,338.4,75.6 M338.4,35.7v7.5
	c-5.3-6.1-13.1-9.7-23.8-9.7c-20.9,0-38.1,18.3-38.1,42.1s17.2,42.1,38.1,42.1c10.7,0,18.5-3.7,23.8-9.7v7.5h23.9V35.7H338.4z
	 M501.8,66.5c0-19.9-12-33-30.3-33c-11.3,0-18.7,4.1-23.1,10.5c-4.5-6.7-11.5-10.5-20.9-10.5c-10.7,0-17.7,4.1-21.4,9.6v-7.3h-23.9
	v79.7h23.9v-45c0-9.4,4.5-15,12.4-15c7.7,0,11.5,5.1,11.5,13.1v46.9h23.9v-45c0-9.4,4.5-15,12.4-15c7.7,0,11.5,5.1,11.5,13.1v46.9
	h23.9v-49 M538.1,67.3c2.2-8.1,8.3-12.6,17.4-12.6c7.2,0,14.4,3.3,16.9,12.6H538.1z M557.7,96.3c-8.8,0-16.1-2.9-19.1-11.2h56.6
	c0.6-3,1-6.2,1-9.6c0-24.1-17.2-42.1-40.5-42.1c-25.2,0-42.4,18.3-42.4,42.1s16.9,42.1,44.2,42.1c15.2,0,27-5.6,34.8-16.4l-19.1-11
	C569.8,93.8,564.2,96.3,557.7,96.3 M667.8,75.6c0,12-8,19.5-19,19.5s-19-7.5-19-19.5s8-19.5,19-19.5
	C659.9,56.1,667.8,63.6,667.8,75.6 M667.8,3.8v39.4c-5.3-6.1-13.1-9.7-23.8-9.7c-20.9,0-38.1,18.3-38.1,42.1s17.2,42.1,38.1,42.1
	c10.7,0,18.5-3.7,23.8-9.7v7.5h23.9V3.8H667.8z M711.6,115.5h23.9V35.7h-23.9V115.5z M709.2,14.4c0,7.8,6.5,14.4,14.4,14.4
	c7.8,0,14.4-6.5,14.4-14.4C738,6.6,731.5,0,723.6,0C715.8,0,709.2,6.5,709.2,14.4 M808.7,75.6c0,12-8,19.5-19,19.5s-19-7.5-19-19.5
	s8-19.5,19-19.5C800.8,56.1,808.7,63.6,808.7,75.6 M808.7,35.7v7.5c-5.3-6.1-13.1-9.7-23.8-9.7c-20.9,0-38.1,18.3-38.1,42.1
	s17.2,42.1,38.1,42.1c10.7,0,18.5-3.7,23.8-9.7v7.5h23.9V35.7H808.7z"/>
</svg>
